<svg version="1.1" id="Layer_1" xmlns="http://www.w3.org/2000/svg" xmlns:xlink="http://www.w3.org/1999/xlink" x="0px" y="0px"
	 width="100%" viewBox="0 0 500 500" enable-background="new 0 0 500 500" xml:space="preserve">
<path fill="#051D40" opacity="1.000000" stroke="none" 
	d="
M225.000000,501.000000 
	C150.000015,501.000000 75.500038,501.000000 1.000040,501.000000 
	C1.000027,334.333405 1.000027,167.666779 1.000013,1.000129 
	C167.666565,1.000086 334.333130,1.000086 500.999756,1.000043 
	C500.999847,167.666534 500.999847,334.333069 500.999939,500.999817 
	C409.166656,501.000000 317.333344,501.000000 225.000000,501.000000 
M320.619110,194.540558 
	C319.692108,189.340881 316.625397,187.867538 311.426941,188.015869 
	C298.158325,188.394470 284.872070,188.156876 271.962769,187.500092 
	C274.839844,179.015289 278.299866,170.675385 280.453369,162.010727 
	C283.468140,149.880783 278.169800,137.472626 267.690552,130.812149 
	C256.864532,123.931282 245.641754,123.876106 234.752060,130.630539 
	C224.172546,137.192596 218.780685,149.512634 221.748947,161.682739 
	C223.940659,170.668991 227.491714,179.323669 229.431366,188.136246 
	C216.474213,188.137283 203.515701,188.242416 190.560806,188.071808 
	C186.976791,188.024628 185.142685,189.337128 184.011078,192.683472 
	C181.305847,200.683380 178.328873,208.591644 175.442566,216.529999 
	C168.653564,235.202118 161.831055,253.862091 155.073105,272.545441 
	C153.329605,277.365570 154.128738,278.444519 159.232468,278.654022 
	C160.061905,278.688049 160.893204,278.677246 162.632263,278.923065 
	C164.182693,278.839996 165.733124,278.756927 168.184128,278.639587 
	C225.792953,278.635590 283.401764,278.637329 341.010590,278.620758 
	C348.708832,278.618561 349.041321,278.032013 346.508209,270.590363 
	C338.266724,246.378937 330.065674,222.153748 321.885864,197.471619 
	C321.549866,196.766098 321.213837,196.060577 320.619110,194.540558 
M259.889832,336.284058 
	C259.050629,338.648132 258.211456,341.012207 257.108002,344.120728 
	C253.522614,338.747437 250.497955,334.214478 247.412216,329.589996 
	C252.579514,325.885498 255.152573,321.302460 252.969467,315.216583 
	C250.796692,309.159424 245.467651,308.194305 239.959366,308.005432 
	C235.322952,307.846466 230.676758,307.972748 225.813477,307.972748 
	C225.813477,320.690308 225.813477,333.129425 225.813477,345.746613 
	C229.197556,345.746613 232.420868,345.746613 236.102081,345.746613 
	C236.102081,341.105316 236.102081,336.709991 236.102081,330.769409 
	C238.038132,332.712677 239.160416,333.507019 239.836990,334.581879 
	C241.695282,337.534210 243.205688,340.716095 245.191422,343.572357 
	C245.977997,344.703796 247.631927,345.851837 248.932434,345.901306 
	C255.229187,346.140717 261.540039,346.009247 267.907349,346.009247 
	C268.713654,343.564514 269.432800,341.384003 270.131348,339.265900 
	C281.528381,338.199127 281.528381,338.199127 284.576599,345.851135 
	C288.013580,345.851135 291.483398,345.851135 295.456635,345.851135 
	C292.546387,336.903992 289.733704,328.242706 286.911743,319.584442 
	C282.974213,307.503387 282.971191,307.502106 270.171356,307.799896 
	C269.874084,307.806793 269.581512,308.016510 268.989197,308.247803 
	C266.056732,317.209778 263.064911,326.353027 259.889832,336.284058 
M140.847504,342.446350 
	C148.261536,336.401306 149.092773,328.448486 147.125916,319.866302 
	C145.518219,312.851227 140.440353,309.098022 133.708206,308.321869 
	C127.862877,307.647919 121.878319,308.181610 115.806931,308.181610 
	C115.806931,320.824432 115.806931,333.232574 115.806931,346.028992 
	C124.190628,345.533997 132.612305,347.640076 140.847504,342.446350 
M314.563873,328.804321 
	C314.258148,330.057556 313.952423,331.310791 313.362946,333.727142 
	C310.836700,324.439728 308.599365,316.214447 306.407990,308.158142 
	C302.335632,308.158142 298.755005,308.158142 294.779358,308.158142 
	C298.953674,320.945251 303.011353,333.375183 307.029694,345.684631 
	C311.373077,345.684631 315.452820,345.684631 319.494476,345.684631 
	C323.610260,333.031342 327.626617,320.683746 331.709015,308.133057 
	C327.434906,308.133057 323.834778,308.133057 320.106567,308.133057 
	C318.302612,314.893372 316.549255,321.464050 314.563873,328.804321 
M351.263824,337.564911 
	C349.494598,337.564911 347.725372,337.564911 345.844849,337.564911 
	C345.844849,334.893616 345.844849,332.860046 345.844849,330.416168 
	C349.659241,330.416168 353.098999,330.416168 356.597870,330.416168 
	C356.597870,327.447235 356.597870,324.899445 356.597870,321.853516 
	C352.727417,321.853516 349.177917,321.853516 345.397522,321.853516 
	C345.527435,319.729736 345.625153,318.132599 345.757782,315.964355 
	C349.937317,315.964355 353.819916,315.964355 357.533630,315.964355 
	C357.533630,312.957367 357.533630,310.552704 357.533630,308.132965 
	C349.955017,308.132965 342.708740,308.132965 335.408325,308.132965 
	C335.408325,320.872864 335.408325,333.375061 335.408325,345.733887 
	C343.028564,345.733887 350.284943,345.733887 357.697968,345.733887 
	C357.697968,343.015594 357.697968,340.570557 357.697968,337.565002 
	C355.792358,337.565002 353.999969,337.565002 351.263824,337.564911 
M164.249634,320.622284 
	C164.359818,319.212891 164.470001,317.803497 164.621109,315.870422 
	C168.875977,315.870422 172.764526,315.870422 176.424896,315.870422 
	C176.424896,312.895569 176.424896,310.494232 176.424896,308.200623 
	C168.809875,308.200623 161.567413,308.200623 154.302551,308.200623 
	C154.302551,320.903320 154.302551,333.297394 154.302551,345.850006 
	C157.673187,345.850006 160.784134,345.850006 164.223663,345.850006 
	C164.223663,341.243439 164.223663,336.788239 164.223663,331.832794 
	C168.131790,331.832794 171.719208,331.832794 175.497131,331.832794 
	C175.497131,328.786530 175.497131,326.248535 175.497131,323.287964 
	C173.215561,323.287964 171.220566,323.500458 169.295578,323.224518 
	C167.581360,322.978821 165.944656,322.192444 164.249634,320.622284 
M220.693100,315.935730 
	C220.693100,313.351746 220.693100,310.767761 220.693100,308.180237 
	C211.056091,308.180237 201.662430,308.180237 192.155258,308.180237 
	C192.155258,310.930023 192.155258,313.387451 192.155258,316.079651 
	C195.161942,316.259888 198.049240,316.432953 201.364380,316.631683 
	C201.364380,326.598907 201.364380,336.175476 201.364380,345.685852 
	C205.076050,345.685852 208.312531,345.685852 211.963028,345.685852 
	C211.963028,335.781586 211.963028,326.200043 211.963028,316.265900 
	C214.876755,316.265900 217.360168,316.265900 220.693100,315.935730 
M373.815125,316.561279 
	C373.815125,313.787750 373.815125,311.014191 373.815125,308.198303 
	C370.022400,308.198303 366.795380,308.198303 363.484741,308.198303 
	C363.484741,320.889832 363.484741,333.266113 363.484741,345.809387 
	C371.821716,345.809387 379.885468,345.809387 388.031769,345.809387 
	C388.031769,343.037720 388.031769,340.483459 388.031769,337.650909 
	C383.264740,337.650909 378.815399,337.650909 373.815125,337.650909 
	C373.815125,330.767761 373.815125,324.157715 373.815125,316.561279 
M357.598755,383.212372 
	C357.704407,382.126923 357.810059,381.041504 357.914948,379.964203 
	C359.383026,380.034760 360.572601,380.305328 361.678375,380.107544 
	C366.122772,379.312439 366.171783,375.823761 366.070862,372.420166 
	C365.978485,369.304749 364.842773,366.739441 361.227020,366.697357 
	C358.831573,366.669495 356.430206,367.152771 354.126434,367.397156 
	C354.126434,373.490417 354.126434,379.572174 354.126434,386.975281 
	C355.815491,385.532532 356.699158,384.777710 357.598755,383.212372 
M333.172272,377.715973 
	C335.761078,375.054138 338.113342,374.603607 340.550720,378.065826 
	C341.336670,379.182220 342.939575,379.723541 344.168793,380.527924 
	C343.312408,374.714050 341.755707,369.863434 339.867157,365.145660 
	C339.449585,364.102539 337.871613,362.934937 336.803497,362.910889 
	C335.784149,362.887909 334.199005,364.066681 333.787018,365.089539 
	C331.884247,369.813263 330.304016,374.666901 328.125214,380.843079 
	C330.477997,379.727753 331.725311,379.136475 333.172272,377.715973 
M381.208405,366.949585 
	C379.406097,367.052002 377.603790,367.154419 375.576111,367.269653 
	C375.576111,372.720367 375.455841,378.026398 375.681458,383.317657 
	C375.724609,384.329926 377.130554,385.284119 377.907776,386.265137 
	C378.292114,385.974701 378.676453,385.684296 379.060822,385.393860 
	C379.157166,383.605774 379.253510,381.817688 379.349640,380.033966 
	C385.816010,380.257446 387.824738,378.879547 387.900299,373.860992 
	C387.959686,369.914246 387.192383,366.360077 381.208405,366.949585 
M156.679199,371.973877 
	C153.576859,372.381226 151.503998,373.891113 152.353622,377.254791 
	C153.238434,380.757812 156.027145,380.369751 158.834320,379.876801 
	C160.432770,379.596039 162.120926,379.826050 164.029877,379.826050 
	C164.029877,377.375488 164.065201,375.055450 164.022690,372.736847 
	C163.927094,367.522858 160.002747,364.941040 155.291016,367.045898 
	C154.702255,367.308899 154.369308,368.144531 153.917847,368.714813 
	C154.528122,369.111328 155.105087,369.767059 155.755569,369.850647 
	C157.128952,370.027161 158.540802,369.904388 159.936874,369.904388 
	C159.968613,370.347229 160.000336,370.790039 160.032059,371.232880 
	C159.193970,371.458923 158.355881,371.684937 156.679199,371.973877 
M198.224014,366.901215 
	C194.060349,368.420959 193.179764,371.964233 194.386246,375.381439 
	C195.089371,377.372955 197.738022,379.220123 199.912369,379.971130 
	C201.535416,380.531769 203.800552,379.233459 205.779755,378.762970 
	C205.642838,378.326721 205.505905,377.890503 205.368988,377.454254 
	C202.918198,377.112549 200.467407,376.770844 198.016617,376.429169 
	C198.059265,375.820557 198.101913,375.211945 198.144547,374.603333 
	C200.691116,374.603333 203.237686,374.603333 205.716263,374.603333 
	C206.239639,368.174927 205.047974,366.905670 198.224014,366.901215 
M265.877899,374.725677 
	C265.877899,376.351746 265.877899,377.977814 265.877899,379.594879 
	C269.892242,379.653931 269.892242,379.653931 269.694214,373.112671 
	C269.502319,366.773834 268.923645,366.507690 257.396484,367.456665 
	C256.568878,379.888794 256.568878,379.888794 261.036041,379.431549 
	C261.036041,377.656799 260.723663,375.781067 261.129211,374.076111 
	C261.490936,372.555328 262.646301,371.223328 263.451416,369.808014 
	C264.259979,371.149872 265.068542,372.491699 265.877899,374.725677 
M299.335449,379.987061 
	C299.993591,380.060425 300.650085,380.174194 301.310120,380.200439 
	C304.823273,380.340179 307.520782,378.570709 307.554047,375.252472 
	C307.580139,372.650665 306.438171,369.227234 304.566132,367.681458 
	C303.156372,366.517456 298.539246,366.816101 297.541412,368.129150 
	C295.951111,370.221741 295.877411,373.692596 295.809265,376.595795 
	C295.784882,377.634155 297.637726,378.716614 299.335449,379.987061 
M121.934822,368.800690 
	C122.825684,367.857483 123.696426,366.894073 124.614647,365.978302 
	C125.209473,365.385101 125.873711,364.861511 126.506821,364.306732 
	C125.981056,363.812744 125.471565,362.913055 124.926865,362.891205 
	C121.613914,362.758301 118.290237,362.758209 114.977310,362.891510 
	C114.425804,362.913727 113.535957,363.772644 113.485992,364.308624 
	C113.439789,364.804352 114.212830,365.657684 114.799118,365.867706 
	C115.770905,366.215851 116.882324,366.174225 118.129349,366.319458 
	C118.129349,371.015228 118.129349,375.297638 118.129349,379.580017 
	C118.556221,379.860992 118.983093,380.141968 119.409966,380.422913 
	C120.251122,379.345886 121.636337,378.353485 121.819778,377.174133 
	C122.197777,374.743988 121.934059,372.213989 121.934822,368.800690 
M181.847473,368.494232 
	C181.109222,370.367432 180.370972,372.240662 179.645752,374.080811 
	C176.465500,372.377930 178.988098,365.854767 172.568176,367.208649 
	C173.998169,370.958069 175.224365,374.535706 176.765961,377.971863 
	C177.174606,378.882721 178.507416,379.787476 179.501770,379.894104 
	C180.259109,379.975281 181.562256,378.964264 181.913910,378.137634 
	C183.427444,374.579956 184.679382,370.910980 186.413818,366.239594 
	C184.264023,367.003510 183.146942,367.400452 181.847473,368.494232 
M284.091095,371.221375 
	C287.627075,368.340912 287.627075,368.340912 284.671539,365.418823 
	C285.904297,364.753418 287.180023,364.064789 288.455780,363.376190 
	C288.300079,362.778534 288.144348,362.180847 287.988647,361.583191 
	C285.784271,361.986847 283.168701,361.801483 281.497223,362.968475 
	C279.983154,364.025574 278.668915,366.586823 278.734497,368.432739 
	C278.867432,372.173370 279.916626,375.898010 280.835602,379.567230 
	C280.922485,379.914093 282.763397,379.821655 284.081512,379.964844 
	C284.081512,377.013245 284.081512,374.537659 284.091095,371.221375 
M244.671082,380.040985 
	C245.352234,379.538208 246.605896,379.055969 246.624817,378.529388 
	C246.790436,373.918610 246.881332,369.291290 246.609146,364.691681 
	C246.561249,363.882202 244.720047,363.178864 243.707031,362.426483 
	C243.292267,362.702637 242.877502,362.978790 242.462738,363.254944 
	C242.909927,368.838013 243.357117,374.421051 244.671082,380.040985 
M135.169449,369.233917 
	C135.169540,371.900513 134.902618,374.606781 135.290314,377.215790 
	C135.465485,378.394531 136.943130,379.379761 137.829849,380.452789 
	C138.388947,380.212708 138.948029,379.972656 139.507126,379.732605 
	C136.666779,374.033203 141.264969,370.852539 144.295593,367.141083 
	C143.878021,366.911926 143.460449,366.682739 143.042877,366.453552 
	C140.421600,367.103333 137.800339,367.753113 135.169449,369.233917 
M219.177261,363.580902 
	C218.429016,362.995667 217.680756,362.410461 216.932526,361.825226 
	C216.492996,362.402435 215.684921,362.971588 215.672073,363.558136 
	C215.566910,368.363464 215.486877,373.178192 215.726364,377.973724 
	C215.767273,378.792572 217.367004,379.533569 219.187180,381.141388 
	C219.187180,374.472595 219.187180,369.521912 219.177261,363.580902 
z"/>
<path fill="#FAFAFB" opacity="1.000000" stroke="none" 
	d="
M259.981476,335.890167 
	C263.064911,326.353027 266.056732,317.209778 268.989197,308.247803 
	C269.581512,308.016510 269.874084,307.806793 270.171356,307.799896 
	C282.971191,307.502106 282.974213,307.503387 286.911743,319.584442 
	C289.733704,328.242706 292.546387,336.903992 295.456635,345.851135 
	C291.483398,345.851135 288.013580,345.851135 284.576599,345.851135 
	C281.528381,338.199127 281.528381,338.199127 270.131348,339.265900 
	C269.432800,341.384003 268.713654,343.564514 267.907349,346.009247 
	C261.540039,346.009247 255.229187,346.140717 248.932434,345.901306 
	C247.631927,345.851837 245.977997,344.703796 245.191422,343.572357 
	C243.205688,340.716095 241.695282,337.534210 239.836990,334.581879 
	C239.160416,333.507019 238.038132,332.712677 236.102081,330.769409 
	C236.102081,336.709991 236.102081,341.105316 236.102081,345.746613 
	C232.420868,345.746613 229.197556,345.746613 225.813477,345.746613 
	C225.813477,333.129425 225.813477,320.690308 225.813477,307.972748 
	C230.676758,307.972748 235.322952,307.846466 239.959366,308.005432 
	C245.467651,308.194305 250.796692,309.159424 252.969467,315.216583 
	C255.152573,321.302460 252.579514,325.885498 247.412216,329.589996 
	C250.497955,334.214478 253.522614,338.747437 257.108002,344.120728 
	C258.211456,341.012207 259.050629,338.648132 259.981476,335.890167 
M279.572296,330.101318 
	C278.647308,325.505432 277.722351,320.909546 276.797394,316.313660 
	C276.471283,316.292480 276.145172,316.271271 275.819061,316.250092 
	C274.681702,320.757782 273.544342,325.265472 272.274658,330.297668 
	C274.872650,330.297668 276.826324,330.297668 279.572296,330.101318 
M235.957016,320.465576 
	C236.073059,321.689941 236.189087,322.914276 236.303864,324.125305 
	C240.128387,324.369751 243.336014,323.919556 243.012604,319.473083 
	C242.695084,315.107697 239.215775,315.992218 236.124695,315.866394 
	C236.059998,317.284637 236.008514,318.413239 235.957016,320.465576 
z"/>
<path fill="#AFD1DE" opacity="1.000000" stroke="none" 
	d="
M321.849030,197.933853 
	C330.065674,222.153748 338.266724,246.378937 346.508209,270.590363 
	C349.041321,278.032013 348.708832,278.618561 341.010590,278.620758 
	C283.401764,278.637329 225.792953,278.635590 167.655548,278.299500 
	C167.603851,276.340729 168.080719,274.722046 168.580215,273.112549 
	C168.602844,273.121704 168.628830,273.074005 169.050049,273.069458 
	C170.019241,272.973846 170.567215,272.882812 171.576202,272.808228 
	C228.090912,272.824677 284.144592,272.824677 341.117310,272.824677 
	C333.506256,250.957581 326.204590,229.979416 319.050476,208.648499 
	C320.081696,204.841797 320.965363,201.387817 321.849030,197.933853 
z"/>
<path fill="#53A8F8" opacity="1.000000" stroke="none" 
	d="
M230.437119,188.126083 
	C227.491714,179.323669 223.940659,170.668991 221.748947,161.682739 
	C218.780685,149.512634 224.172546,137.192596 234.752060,130.630539 
	C245.641754,123.876106 256.864532,123.931282 267.690552,130.812149 
	C278.169800,137.472626 283.468140,149.880783 280.453369,162.010727 
	C278.299866,170.675385 274.839844,179.015289 271.755920,187.797073 
	C271.549103,188.094055 271.565521,188.010422 271.109589,188.026031 
	C268.990631,187.674240 267.327606,187.306839 265.814545,186.599762 
	C268.840240,177.955963 272.199005,169.781128 274.465973,161.313995 
	C277.129059,151.367233 272.962158,141.560120 264.766541,135.979889 
	C256.702881,130.489517 245.938370,130.345398 237.971802,135.621185 
	C229.338745,141.338303 225.041183,150.959244 227.764526,161.155731 
	C230.194916,170.255280 233.781235,179.046082 236.403427,187.988678 
	C234.114227,188.000961 232.279022,187.997711 230.456589,188.028107 
	C230.469345,188.061737 230.437119,188.126083 230.437119,188.126083 
z"/>
<path fill="#FBFBFC" opacity="1.000000" stroke="none" 
	d="
M140.548935,342.661346 
	C132.612305,347.640076 124.190628,345.533997 115.806931,346.028992 
	C115.806931,333.232574 115.806931,320.824432 115.806931,308.181610 
	C121.878319,308.181610 127.862877,307.647919 133.708206,308.321869 
	C140.440353,309.098022 145.518219,312.851227 147.125916,319.866302 
	C149.092773,328.448486 148.261536,336.401306 140.548935,342.661346 
M137.095291,324.779480 
	C135.963028,317.675873 133.740204,315.960419 126.213287,316.552185 
	C126.213287,323.434265 126.213287,330.331146 126.213287,337.218445 
	C134.675293,337.491638 136.927399,335.043518 137.095291,324.779480 
z"/>
<path fill="#AACCD9" opacity="1.000000" stroke="none" 
	d="
M229.934235,188.131165 
	C230.437119,188.126083 230.469345,188.061737 230.558411,188.386505 
	C231.433655,190.492004 232.219864,192.272736 232.539001,194.100861 
	C219.276398,194.162048 206.480194,194.247330 193.685806,194.132538 
	C190.956177,194.108047 189.640518,194.882080 188.655441,197.582535 
	C180.249893,220.625504 171.652924,243.598618 163.175415,266.615540 
	C163.036804,266.991913 163.678955,267.655792 163.812790,268.459412 
	C163.370209,269.497162 163.071564,270.260986 162.463959,271.191650 
	C162.011215,273.801361 161.867432,276.244293 161.723633,278.687195 
	C160.893204,278.677246 160.061905,278.688049 159.232468,278.654022 
	C154.128738,278.444519 153.329605,277.365570 155.073105,272.545441 
	C161.831055,253.862091 168.653564,235.202118 175.442566,216.529999 
	C178.328873,208.591644 181.305847,200.683380 184.011078,192.683472 
	C185.142685,189.337128 186.976791,188.024628 190.560806,188.071808 
	C203.515701,188.242416 216.474213,188.137283 229.934235,188.131165 
z"/>
<path fill="#F9F9FA" opacity="1.000000" stroke="none" 
	d="
M314.679871,328.419556 
	C316.549255,321.464050 318.302612,314.893372 320.106567,308.133057 
	C323.834778,308.133057 327.434906,308.133057 331.709015,308.133057 
	C327.626617,320.683746 323.610260,333.031342 319.494476,345.684631 
	C315.452820,345.684631 311.373077,345.684631 307.029694,345.684631 
	C303.011353,333.375183 298.953674,320.945251 294.779358,308.158142 
	C298.755005,308.158142 302.335632,308.158142 306.407990,308.158142 
	C308.599365,316.214447 310.836700,324.439728 313.362946,333.727142 
	C313.952423,331.310791 314.258148,330.057556 314.679871,328.419556 
z"/>
<path fill="#FBFBFC" opacity="1.000000" stroke="none" 
	d="
M351.735718,337.564941 
	C353.999969,337.565002 355.792358,337.565002 357.697968,337.565002 
	C357.697968,340.570557 357.697968,343.015594 357.697968,345.733887 
	C350.284943,345.733887 343.028564,345.733887 335.408325,345.733887 
	C335.408325,333.375061 335.408325,320.872864 335.408325,308.132965 
	C342.708740,308.132965 349.955017,308.132965 357.533630,308.132965 
	C357.533630,310.552704 357.533630,312.957367 357.533630,315.964355 
	C353.819916,315.964355 349.937317,315.964355 345.757782,315.964355 
	C345.625153,318.132599 345.527435,319.729736 345.397522,321.853516 
	C349.177917,321.853516 352.727417,321.853516 356.597870,321.853516 
	C356.597870,324.899445 356.597870,327.447235 356.597870,330.416168 
	C353.098999,330.416168 349.659241,330.416168 345.844849,330.416168 
	C345.844849,332.860046 345.844849,334.893616 345.844849,337.564911 
	C347.725372,337.564911 349.494598,337.564911 351.735718,337.564941 
z"/>
<path fill="#F9F9FA" opacity="1.000000" stroke="none" 
	d="
M164.261688,321.133484 
	C165.944656,322.192444 167.581360,322.978821 169.295578,323.224518 
	C171.220566,323.500458 173.215561,323.287964 175.497131,323.287964 
	C175.497131,326.248535 175.497131,328.786530 175.497131,331.832794 
	C171.719208,331.832794 168.131790,331.832794 164.223663,331.832794 
	C164.223663,336.788239 164.223663,341.243439 164.223663,345.850006 
	C160.784134,345.850006 157.673187,345.850006 154.302551,345.850006 
	C154.302551,333.297394 154.302551,320.903320 154.302551,308.200623 
	C161.567413,308.200623 168.809875,308.200623 176.424896,308.200623 
	C176.424896,310.494232 176.424896,312.895569 176.424896,315.870422 
	C172.764526,315.870422 168.875977,315.870422 164.621109,315.870422 
	C164.470001,317.803497 164.359818,319.212891 164.261688,321.133484 
z"/>
<path fill="#F6F7F8" opacity="1.000000" stroke="none" 
	d="
M220.268341,316.100830 
	C217.360168,316.265900 214.876755,316.265900 211.963028,316.265900 
	C211.963028,326.200043 211.963028,335.781586 211.963028,345.685852 
	C208.312531,345.685852 205.076050,345.685852 201.364380,345.685852 
	C201.364380,336.175476 201.364380,326.598907 201.364380,316.631683 
	C198.049240,316.432953 195.161942,316.259888 192.155258,316.079651 
	C192.155258,313.387451 192.155258,310.930023 192.155258,308.180237 
	C201.662430,308.180237 211.056091,308.180237 220.693100,308.180237 
	C220.693100,310.767761 220.693100,313.351746 220.268341,316.100830 
z"/>
<path fill="#F5F6F7" opacity="1.000000" stroke="none" 
	d="
M373.815125,317.054474 
	C373.815125,324.157715 373.815125,330.767761 373.815125,337.650909 
	C378.815399,337.650909 383.264740,337.650909 388.031769,337.650909 
	C388.031769,340.483459 388.031769,343.037720 388.031769,345.809387 
	C379.885468,345.809387 371.821716,345.809387 363.484741,345.809387 
	C363.484741,333.266113 363.484741,320.889832 363.484741,308.198303 
	C366.795380,308.198303 370.022400,308.198303 373.815125,308.198303 
	C373.815125,311.014191 373.815125,313.787750 373.815125,317.054474 
z"/>
<path fill="#AACCD9" opacity="1.000000" stroke="none" 
	d="
M271.565521,188.010422 
	C271.565521,188.010422 271.549103,188.094055 271.570984,188.129913 
	C284.872070,188.156876 298.158325,188.394470 311.426941,188.015869 
	C316.625397,187.867538 319.692108,189.340881 320.320343,194.818787 
	C318.373505,195.403488 316.725464,195.709946 314.828186,195.698212 
	C312.899323,194.983139 311.222504,194.256012 309.539612,194.241745 
	C296.268982,194.129318 282.997162,194.152969 269.735107,193.731293 
	C270.351532,191.555389 270.958527,189.782913 271.565521,188.010422 
z"/>
<path fill="#EBEDF0" opacity="1.000000" stroke="none" 
	d="
M357.590759,383.617645 
	C356.699158,384.777710 355.815491,385.532532 354.126434,386.975281 
	C354.126434,379.572174 354.126434,373.490417 354.126434,367.397156 
	C356.430206,367.152771 358.831573,366.669495 361.227020,366.697357 
	C364.842773,366.739441 365.978485,369.304749 366.070862,372.420166 
	C366.171783,375.823761 366.122772,379.312439 361.678375,380.107544 
	C360.572601,380.305328 359.383026,380.034760 357.914948,379.964203 
	C357.810059,381.041504 357.704407,382.126923 357.590759,383.617645 
M357.683441,374.321869 
	C358.589691,375.225739 359.495941,376.129639 360.402191,377.033539 
	C361.002869,375.505371 361.953949,374.001251 362.061340,372.439178 
	C362.117828,371.617798 360.698761,370.695007 359.946014,369.818024 
	C359.171356,371.021149 358.396698,372.224274 357.683441,374.321869 
z"/>
<path fill="#EBEDF0" opacity="1.000000" stroke="none" 
	d="
M333.072449,378.130554 
	C331.725311,379.136475 330.477997,379.727753 328.125214,380.843079 
	C330.304016,374.666901 331.884247,369.813263 333.787018,365.089539 
	C334.199005,364.066681 335.784149,362.887909 336.803497,362.910889 
	C337.871613,362.934937 339.449585,364.102539 339.867157,365.145660 
	C341.755707,369.863434 343.312408,374.714050 344.168793,380.527924 
	C342.939575,379.723541 341.336670,379.182220 340.550720,378.065826 
	C338.113342,374.603607 335.761078,375.054138 333.072449,378.130554 
z"/>
<path fill="#F5F6F7" opacity="1.000000" stroke="none" 
	d="
M381.560425,366.871216 
	C387.192383,366.360077 387.959686,369.914246 387.900299,373.860992 
	C387.824738,378.879547 385.816010,380.257446 379.349640,380.033966 
	C379.253510,381.817688 379.157166,383.605774 379.060822,385.393860 
	C378.676453,385.684296 378.292114,385.974701 377.907776,386.265137 
	C377.130554,385.284119 375.724609,384.329926 375.681458,383.317657 
	C375.455841,378.026398 375.576111,372.720367 375.576111,367.269653 
	C377.603790,367.154419 379.406097,367.052002 381.560425,366.871216 
M383.224518,370.260345 
	C380.174652,368.839661 379.096985,370.713348 379.318298,373.135529 
	C379.445160,374.523987 380.955231,375.786133 381.842590,377.105133 
	C382.594635,375.690277 383.441620,374.314392 384.047119,372.839355 
	C384.258209,372.325195 383.873047,371.566223 383.224518,370.260345 
z"/>
<path fill="#EBEDF0" opacity="1.000000" stroke="none" 
	d="
M157.098495,371.942413 
	C158.355881,371.684937 159.193970,371.458923 160.032059,371.232880 
	C160.000336,370.790039 159.968613,370.347229 159.936874,369.904388 
	C158.540802,369.904388 157.128952,370.027161 155.755569,369.850647 
	C155.105087,369.767059 154.528122,369.111328 153.917847,368.714844 
	C154.369308,368.144531 154.702255,367.308899 155.291016,367.045898 
	C160.002747,364.941040 163.927094,367.522858 164.022690,372.736847 
	C164.065201,375.055450 164.029877,377.375488 164.029877,379.826050 
	C162.120926,379.826050 160.432770,379.596039 158.834320,379.876801 
	C156.027145,380.369751 153.238434,380.757812 152.353622,377.254791 
	C151.503998,373.891113 153.576859,372.381226 157.098495,371.942413 
z"/>
<path fill="#EBEDF0" opacity="1.000000" stroke="none" 
	d="
M198.589493,366.832458 
	C205.047974,366.905670 206.239639,368.174927 205.716263,374.603333 
	C203.237686,374.603333 200.691116,374.603333 198.144547,374.603333 
	C198.101913,375.211945 198.059265,375.820557 198.016617,376.429169 
	C200.467407,376.770844 202.918198,377.112549 205.368988,377.454254 
	C205.505905,377.890503 205.642838,378.326721 205.779755,378.762970 
	C203.800552,379.233459 201.535416,380.531769 199.912369,379.971130 
	C197.738022,379.220123 195.089371,377.372955 194.386246,375.381439 
	C193.179764,371.964233 194.060349,368.420959 198.589493,366.832458 
z"/>
<path fill="#E6E9EC" opacity="1.000000" stroke="none" 
	d="
M265.877502,374.279602 
	C265.068542,372.491699 264.259979,371.149872 263.451416,369.808014 
	C262.646301,371.223328 261.490936,372.555328 261.129211,374.076111 
	C260.723663,375.781067 261.036041,377.656799 261.036041,379.431549 
	C256.568878,379.888794 256.568878,379.888794 257.396484,367.456665 
	C268.923645,366.507690 269.502319,366.773834 269.694214,373.112671 
	C269.892242,379.653931 269.892242,379.653931 265.877899,379.594879 
	C265.877899,377.977814 265.877899,376.351746 265.877502,374.279602 
z"/>
<path fill="#EBEDF0" opacity="1.000000" stroke="none" 
	d="
M298.984619,379.882996 
	C297.637726,378.716614 295.784882,377.634155 295.809265,376.595795 
	C295.877411,373.692596 295.951111,370.221741 297.541412,368.129150 
	C298.539246,366.816101 303.156372,366.517456 304.566132,367.681458 
	C306.438171,369.227234 307.580139,372.650665 307.554047,375.252472 
	C307.520782,378.570709 304.823273,380.340179 301.310120,380.200439 
	C300.650085,380.174194 299.993591,380.060425 298.984619,379.882996 
M303.863800,375.139435 
	C303.314209,373.397736 302.764587,371.656036 302.214966,369.914337 
	C301.227051,370.315094 299.463287,370.612732 299.393799,371.135590 
	C299.167419,372.838867 299.559967,374.624359 299.714386,376.378235 
	C300.991333,376.225098 302.268250,376.071960 303.863800,375.139435 
z"/>
<path fill="#EBEDF0" opacity="1.000000" stroke="none" 
	d="
M121.934601,369.262878 
	C121.934059,372.213989 122.197777,374.743988 121.819778,377.174133 
	C121.636337,378.353485 120.251122,379.345886 119.409966,380.422913 
	C118.983093,380.141968 118.556221,379.860992 118.129349,379.580017 
	C118.129349,375.297638 118.129349,371.015228 118.129349,366.319458 
	C116.882324,366.174225 115.770905,366.215851 114.799118,365.867706 
	C114.212830,365.657684 113.439789,364.804352 113.485992,364.308624 
	C113.535957,363.772644 114.425804,362.913727 114.977310,362.891510 
	C118.290237,362.758209 121.613914,362.758301 124.926865,362.891205 
	C125.471565,362.913055 125.981056,363.812744 126.506836,364.306763 
	C125.873711,364.861511 125.209473,365.385101 124.614647,365.978302 
	C123.696426,366.894073 122.825684,367.857483 121.934601,369.262878 
z"/>
<path fill="#EBEDF0" opacity="1.000000" stroke="none" 
	d="
M181.938660,368.145813 
	C183.146942,367.400452 184.264023,367.003510 186.413818,366.239594 
	C184.679382,370.910980 183.427444,374.579956 181.913910,378.137634 
	C181.562256,378.964264 180.259109,379.975281 179.501770,379.894104 
	C178.507416,379.787476 177.174606,378.882721 176.765961,377.971863 
	C175.224365,374.535706 173.998169,370.958069 172.568176,367.208649 
	C178.988098,365.854767 176.465500,372.377930 179.645752,374.080811 
	C180.370972,372.240662 181.109222,370.367432 181.938660,368.145813 
z"/>
<path fill="#E6E9EC" opacity="1.000000" stroke="none" 
	d="
M284.086304,371.641724 
	C284.081512,374.537659 284.081512,377.013245 284.081512,379.964844 
	C282.763397,379.821655 280.922485,379.914093 280.835602,379.567230 
	C279.916626,375.898010 278.867432,372.173370 278.734497,368.432739 
	C278.668915,366.586823 279.983154,364.025574 281.497223,362.968475 
	C283.168701,361.801483 285.784271,361.986847 287.988647,361.583191 
	C288.144348,362.180847 288.300079,362.778534 288.455780,363.376190 
	C287.180023,364.064789 285.904297,364.753418 284.671539,365.418823 
	C287.627075,368.340912 287.627075,368.340912 284.086304,371.641724 
z"/>
<path fill="#E6E9EC" opacity="1.000000" stroke="none" 
	d="
M244.237701,380.022522 
	C243.357117,374.421051 242.909927,368.838013 242.462738,363.254944 
	C242.877502,362.978790 243.292267,362.702637 243.707031,362.426483 
	C244.720047,363.178864 246.561249,363.882202 246.609146,364.691681 
	C246.881332,369.291290 246.790436,373.918610 246.624817,378.529388 
	C246.605896,379.055969 245.352234,379.538208 244.237701,380.022522 
z"/>
<path fill="#E6E9EC" opacity="1.000000" stroke="none" 
	d="
M135.174255,368.818420 
	C137.800339,367.753113 140.421600,367.103333 143.042877,366.453552 
	C143.460449,366.682739 143.878021,366.911926 144.295593,367.141083 
	C141.264969,370.852539 136.666779,374.033203 139.507126,379.732605 
	C138.948029,379.972656 138.388947,380.212708 137.829849,380.452789 
	C136.943130,379.379761 135.465485,378.394531 135.290314,377.215790 
	C134.902618,374.606781 135.169540,371.900513 135.174255,368.818420 
z"/>
<path fill="#1F619E" opacity="1.000000" stroke="none" 
	d="
M315.077393,196.016418 
	C316.725464,195.709946 318.373505,195.403488 320.449707,195.226044 
	C321.213837,196.060577 321.549866,196.766098 321.867432,197.702728 
	C320.965363,201.387817 320.081696,204.841797 318.810059,208.653046 
	C318.422058,209.010330 317.949219,208.919525 318.007507,208.529572 
	C317.078491,205.127975 316.091156,202.116302 315.063660,198.719574 
	C315.041504,197.561813 315.059448,196.789108 315.077393,196.016418 
z"/>
<path fill="#FBFBFC" opacity="1.000000" stroke="none" 
	d="
M219.182220,364.076080 
	C219.187180,369.521912 219.187180,374.472595 219.187180,381.141388 
	C217.367004,379.533569 215.767273,378.792572 215.726364,377.973724 
	C215.486877,373.178192 215.566910,368.363464 215.672073,363.558136 
	C215.684921,362.971588 216.492996,362.402435 216.932526,361.825226 
	C217.680756,362.410461 218.429016,362.995667 219.182220,364.076080 
z"/>
<path fill="#476886" opacity="1.000000" stroke="none" 
	d="
M162.177948,278.805115 
	C161.867432,276.244293 162.011215,273.801361 162.624176,271.557495 
	C164.914764,272.205444 166.736176,272.654419 168.557587,273.103394 
	C168.080719,274.722046 167.603851,276.340729 167.205261,278.316620 
	C165.733124,278.756927 164.182693,278.839996 162.177948,278.805115 
z"/>
<path fill="#182E4F" opacity="1.000000" stroke="none" 
	d="
M279.176147,330.199493 
	C276.826324,330.297668 274.872650,330.297668 272.274658,330.297668 
	C273.544342,325.265472 274.681702,320.757782 275.819061,316.250092 
	C276.145172,316.271271 276.471283,316.292480 276.797394,316.313660 
	C277.722351,320.909546 278.647308,325.505432 279.176147,330.199493 
z"/>
<path fill="#0A2244" opacity="1.000000" stroke="none" 
	d="
M235.957016,320.003693 
	C236.008514,318.413239 236.059998,317.284637 236.124695,315.866394 
	C239.215775,315.992218 242.695084,315.107697 243.012604,319.473083 
	C243.336014,323.919556 240.128387,324.369751 236.303864,324.125305 
	C236.189087,322.914276 236.073059,321.689941 235.957016,320.003693 
z"/>
<path fill="#061E41" opacity="1.000000" stroke="none" 
	d="
M317.949219,208.919525 
	C317.949219,208.919525 318.422058,209.010330 318.662506,209.005783 
	C326.204590,229.979416 333.506256,250.957581 341.117310,272.824677 
	C284.144592,272.824677 228.090912,272.824677 171.490158,272.503265 
	C170.871628,271.769379 170.800186,271.356873 170.937622,270.650208 
	C170.986526,269.023865 171.247726,267.334595 170.523697,266.480682 
	C170.011414,265.876465 168.108215,266.182098 166.932526,266.489410 
	C165.865692,266.768280 164.942978,267.598419 163.956741,268.185516 
	C163.678955,267.655792 163.036804,266.991913 163.175415,266.615540 
	C171.652924,243.598618 180.249893,220.625504 188.655441,197.582535 
	C189.640518,194.882080 190.956177,194.108047 193.685806,194.132538 
	C206.480194,194.247330 219.276398,194.162048 232.733551,194.156036 
	C233.395142,194.163834 233.761475,193.994019 233.833710,194.365158 
	C237.719284,201.081345 241.109070,207.738251 245.479065,213.673447 
	C249.018875,218.481125 252.593216,218.197189 256.671906,213.899414 
	C258.369110,212.111023 259.909607,210.116241 261.212433,208.023026 
	C264.080505,203.414917 266.752075,198.684509 269.531982,194.083099 
	C269.560089,194.162201 269.725708,194.134735 269.725708,194.134735 
	C282.997162,194.152969 296.268982,194.129318 309.539612,194.241745 
	C311.222504,194.256012 312.899323,194.983139 314.828186,195.698212 
	C315.059448,196.789108 315.041504,197.561813 314.984711,199.109467 
	C314.659790,201.506348 314.314728,203.120544 314.100586,204.751923 
	C313.722137,207.635376 314.837311,209.219803 317.949219,208.919525 
M238.358887,230.108398 
	C242.080521,233.645081 246.587112,232.700943 250.898315,231.993546 
	C251.460739,231.901276 252.355804,228.937164 251.833878,228.029266 
	C250.079498,224.977493 240.038818,226.100067 238.358887,230.108398 
M218.633575,260.787933 
	C216.159866,260.663666 213.638168,260.206757 211.232437,260.553741 
	C210.006424,260.730560 208.988708,262.351562 207.876846,263.319763 
	C208.956741,264.312439 209.897888,265.869629 211.146362,266.176483 
	C213.514816,266.758698 216.084991,266.898773 218.519897,266.671356 
	C219.726974,266.558624 220.819778,265.222504 221.964264,264.439850 
	C221.129639,263.249115 220.295029,262.058350 218.633575,260.787933 
M235.191025,227.868240 
	C232.447647,225.767990 224.568512,225.413315 222.477356,227.681442 
	C221.726868,228.495453 221.564667,230.930222 222.223694,231.766235 
	C224.326019,234.433090 233.983276,231.955750 235.191025,227.868240 
M280.788055,232.183960 
	C281.616516,232.101898 282.662567,232.307907 283.229553,231.879669 
	C284.532593,230.895569 285.602386,229.602646 286.766846,228.435059 
	C285.336823,227.614471 283.983917,226.359375 282.456360,226.088242 
	C280.723328,225.780609 278.685608,225.986511 277.053253,226.645340 
	C275.347107,227.333939 273.965546,228.826645 272.442078,229.967850 
	C274.131134,230.856918 275.771393,231.867996 277.534149,232.572800 
	C278.204529,232.840866 279.156342,232.405075 280.788055,232.183960 
M228.495605,248.333694 
	C227.256042,245.339478 218.348969,241.542679 216.087509,243.350784 
	C215.218323,244.045715 214.751328,246.491776 215.298050,247.472977 
	C216.868744,250.291992 225.433487,251.100647 228.495605,248.333694 
M297.157898,228.782440 
	C298.234375,228.343384 299.594208,228.171951 300.320923,227.402557 
	C301.412872,226.246506 302.061279,224.671539 302.898285,223.274689 
	C301.363647,222.815201 299.772705,221.852631 298.307831,222.016541 
	C296.216217,222.250565 294.026611,223.005157 292.243073,224.120056 
	C290.990753,224.902863 290.345367,226.656570 289.428955,227.976715 
	C290.798737,228.605621 292.118713,229.465393 293.557251,229.775833 
	C294.403839,229.958557 295.438629,229.269226 297.157898,228.782440 
M237.516373,256.124329 
	C239.043228,256.551971 240.570084,256.979645 242.096939,257.407288 
	C242.126526,255.765900 242.847229,253.523453 242.047226,252.603531 
	C240.163345,250.437317 237.684875,248.668762 235.159378,247.251923 
	C234.389969,246.820267 232.068069,247.731293 231.586395,248.631546 
	C231.147522,249.451752 231.917786,251.373718 232.733521,252.301453 
	C233.894592,253.622009 235.584534,254.477539 237.516373,256.124329 
M210.045532,242.126480 
	C210.972336,242.254807 212.459381,242.809433 212.737396,242.444092 
	C214.976898,239.500961 217.619308,236.615646 218.855255,233.242447 
	C219.723602,230.872513 217.508728,229.346191 214.753586,230.525391 
	C210.754623,232.236969 208.579453,236.863266 210.045532,242.126480 
M231.507660,260.041382 
	C230.054428,260.354279 228.454987,260.394104 227.195267,261.068451 
	C226.226151,261.587250 224.923691,263.124176 225.123901,263.816956 
	C225.456787,264.968872 227.044998,266.750824 227.808426,266.614075 
	C231.159348,266.013947 234.456818,264.957642 237.643860,263.729858 
	C238.300400,263.476898 238.976257,261.460602 238.622421,260.828186 
	C238.105957,259.905060 236.719589,259.145874 235.603561,258.975677 
	C234.575668,258.818970 233.415131,259.532104 231.507660,260.041382 
M174.051392,266.340149 
	C176.764023,268.227509 185.689972,267.783966 187.125137,265.406769 
	C187.673462,264.498505 187.492371,262.340179 186.773926,261.623901 
	C184.310623,259.168091 175.364059,262.018860 174.051392,266.340149 
M312.858765,219.304871 
	C313.680481,218.277481 314.963745,217.348495 315.209045,216.198181 
	C315.528046,214.702393 315.022308,213.030716 314.871552,211.434723 
	C313.448364,211.835175 311.760345,211.885117 310.661865,212.715256 
	C308.850220,214.084274 307.127838,215.776520 305.941620,217.688507 
	C305.268188,218.773926 305.735748,220.567261 305.689484,222.041794 
	C307.023376,222.040009 308.442078,222.318954 309.664856,221.949448 
	C310.680206,221.642593 311.464905,220.572617 312.858765,219.304871 
M269.623688,230.445175 
	C267.982208,227.027695 258.253387,225.304489 256.201141,228.277206 
	C255.614792,229.126556 256.366333,232.190170 256.807129,232.257568 
	C261.021606,232.901779 265.459229,234.704788 269.623688,230.445175 
M201.051941,260.011719 
	C199.077286,260.029510 196.995987,259.666595 195.160385,260.180786 
	C193.581039,260.623230 192.281982,262.066254 190.859009,263.066895 
	C192.248917,264.049683 193.517517,265.484375 195.060089,265.898438 
	C196.902740,266.393127 199.033722,266.291626 200.937531,265.921844 
	C202.335358,265.650391 203.568619,264.531494 204.875198,263.790283 
	C203.886368,262.555542 202.897537,261.320770 201.051941,260.011719 
z"/>
<path fill="#53A8F8" opacity="1.000000" stroke="none" 
	d="
M163.812790,268.459412 
	C164.942978,267.598419 165.865692,266.768280 166.932526,266.489410 
	C168.108215,266.182098 170.011414,265.876465 170.523697,266.480682 
	C171.247726,267.334595 170.986526,269.023865 170.652161,270.753540 
	C169.648163,271.792023 169.138489,272.433014 168.628815,273.074005 
	C168.628830,273.074005 168.602844,273.121704 168.580215,273.112549 
	C166.736176,272.654419 164.914764,272.205444 162.933136,271.390686 
	C163.071564,270.260986 163.370209,269.497162 163.812790,268.459412 
z"/>
<path fill="#476886" opacity="1.000000" stroke="none" 
	d="
M169.050049,273.069458 
	C169.138489,272.433014 169.648163,271.792023 170.443298,271.047729 
	C170.800186,271.356873 170.871628,271.769379 171.029114,272.486816 
	C170.567215,272.882812 170.019241,272.973846 169.050049,273.069458 
z"/>
<path fill="#072044" opacity="1.000000" stroke="none" 
	d="
M236.857422,187.973129 
	C233.781235,179.046082 230.194916,170.255280 227.764526,161.155731 
	C225.041183,150.959244 229.338745,141.338303 237.971802,135.621185 
	C245.938370,130.345398 256.702881,130.489517 264.766541,135.979889 
	C272.962158,141.560120 277.129059,151.367233 274.465973,161.313995 
	C272.199005,169.781128 268.840240,177.955963 265.569824,186.806824 
	C264.474945,188.930176 263.774719,190.506805 262.988342,192.424988 
	C259.364288,198.867798 255.826355,204.969070 251.705078,212.076385 
	C248.932312,208.429672 246.905914,206.059891 245.214767,203.471100 
	C242.689148,199.604889 240.399643,195.584427 238.054260,191.290741 
	C237.685028,189.958984 237.271225,188.966064 236.857422,187.973129 
M268.982727,147.781708 
	C262.782623,138.067688 252.862091,134.456207 243.360107,138.454025 
	C234.208588,142.304398 229.127441,152.327499 231.559433,161.732117 
	C234.533798,173.234100 246.009064,179.764877 257.046234,176.237122 
	C268.786957,172.484482 273.893433,160.929367 268.982727,147.781708 
z"/>
<path fill="#285684" opacity="1.000000" stroke="none" 
	d="
M263.074524,192.083435 
	C263.774719,190.506805 264.474945,188.930176 265.419861,187.146484 
	C267.327606,187.306839 268.990631,187.674240 271.109589,188.026031 
	C270.958527,189.782913 270.351532,191.555389 269.735107,193.731293 
	C269.725708,194.134735 269.560089,194.162201 269.124603,194.198593 
	C266.817596,193.517792 264.946045,192.800613 263.074524,192.083435 
z"/>
<path fill="#285684" opacity="1.000000" stroke="none" 
	d="
M236.403412,187.988678 
	C237.271225,188.966064 237.685028,189.958984 237.962692,191.673584 
	C236.471527,192.928177 235.116501,193.461105 233.761475,193.994019 
	C233.761475,193.994019 233.395142,194.163834 233.200592,194.108658 
	C232.219864,192.272736 231.433655,190.492004 230.545654,188.352859 
	C232.279022,187.997711 234.114227,188.000961 236.403412,187.988678 
z"/>
<path fill="#0A2244" opacity="1.000000" stroke="none" 
	d="
M137.109863,325.213318 
	C136.927399,335.043518 134.675293,337.491638 126.213287,337.218445 
	C126.213287,330.331146 126.213287,323.434265 126.213287,316.552185 
	C133.740204,315.960419 135.963028,317.675873 137.109863,325.213318 
z"/>
<path fill="#0A2244" opacity="1.000000" stroke="none" 
	d="
M357.652771,373.874634 
	C358.396698,372.224274 359.171356,371.021149 359.946014,369.818024 
	C360.698761,370.695007 362.117828,371.617798 362.061340,372.439178 
	C361.953949,374.001251 361.002869,375.505371 360.402191,377.033539 
	C359.495941,376.129639 358.589691,375.225739 357.652771,373.874634 
z"/>
<path fill="#182E4F" opacity="1.000000" stroke="none" 
	d="
M383.492371,370.589722 
	C383.873047,371.566223 384.258209,372.325195 384.047119,372.839355 
	C383.441620,374.314392 382.594635,375.690277 381.842590,377.105133 
	C380.955231,375.786133 379.445160,374.523987 379.318298,373.135529 
	C379.096985,370.713348 380.174652,368.839661 383.492371,370.589722 
z"/>
<path fill="#0A2244" opacity="1.000000" stroke="none" 
	d="
M303.704498,375.529114 
	C302.268250,376.071960 300.991333,376.225098 299.714355,376.378235 
	C299.559967,374.624359 299.167419,372.838867 299.393799,371.135590 
	C299.463287,370.612732 301.227051,370.315094 302.214966,369.914337 
	C302.764587,371.656036 303.314209,373.397736 303.704498,375.529114 
z"/>
<path fill="#50A3F1" opacity="1.000000" stroke="none" 
	d="
M318.007507,208.529572 
	C314.837311,209.219803 313.722137,207.635376 314.100586,204.751923 
	C314.314728,203.120544 314.659790,201.506348 315.024841,199.494522 
	C316.091156,202.116302 317.078491,205.127975 318.007507,208.529572 
z"/>
<path fill="#52A7F6" opacity="1.000000" stroke="none" 
	d="
M233.833710,194.365158 
	C235.116501,193.461105 236.471527,192.928177 237.918121,192.012421 
	C240.399643,195.584427 242.689148,199.604889 245.214767,203.471100 
	C246.905914,206.059891 248.932312,208.429672 251.705078,212.076385 
	C255.826355,204.969070 259.364288,198.867798 262.988342,192.424988 
	C264.946045,192.800613 266.817596,193.517792 269.096497,194.119492 
	C266.752075,198.684509 264.080505,203.414917 261.212433,208.023026 
	C259.909607,210.116241 258.369110,212.111023 256.671906,213.899414 
	C252.593216,218.197189 249.018875,218.481125 245.479065,213.673447 
	C241.109070,207.738251 237.719284,201.081345 233.833710,194.365158 
z"/>
<path fill="#50A3F1" opacity="1.000000" stroke="none" 
	d="
M238.275543,229.729431 
	C240.038818,226.100067 250.079498,224.977493 251.833878,228.029266 
	C252.355804,228.937164 251.460739,231.901276 250.898315,231.993546 
	C246.587112,232.700943 242.080521,233.645081 238.275543,229.729431 
z"/>
<path fill="#50A3F1" opacity="1.000000" stroke="none" 
	d="
M219.046997,260.827759 
	C220.295029,262.058350 221.129639,263.249115 221.964264,264.439850 
	C220.819778,265.222504 219.726974,266.558624 218.519897,266.671356 
	C216.084991,266.898773 213.514816,266.758698 211.146362,266.176483 
	C209.897888,265.869629 208.956741,264.312439 207.876846,263.319763 
	C208.988708,262.351562 210.006424,260.730560 211.232437,260.553741 
	C213.638168,260.206757 216.159866,260.663666 219.046997,260.827759 
z"/>
<path fill="#50A3F1" opacity="1.000000" stroke="none" 
	d="
M235.331863,228.223099 
	C233.983276,231.955750 224.326019,234.433090 222.223694,231.766235 
	C221.564667,230.930222 221.726868,228.495453 222.477356,227.681442 
	C224.568512,225.413315 232.447647,225.767990 235.331863,228.223099 
z"/>
<path fill="#50A3F1" opacity="1.000000" stroke="none" 
	d="
M280.383972,232.237030 
	C279.156342,232.405075 278.204529,232.840866 277.534149,232.572800 
	C275.771393,231.867996 274.131134,230.856918 272.442078,229.967850 
	C273.965546,228.826645 275.347107,227.333939 277.053253,226.645340 
	C278.685608,225.986511 280.723328,225.780609 282.456360,226.088242 
	C283.983917,226.359375 285.336823,227.614471 286.766846,228.435059 
	C285.602386,229.602646 284.532593,230.895569 283.229553,231.879669 
	C282.662567,232.307907 281.616516,232.101898 280.383972,232.237030 
z"/>
<path fill="#50A3F1" opacity="1.000000" stroke="none" 
	d="
M228.365250,248.679596 
	C225.433487,251.100647 216.868744,250.291992 215.298050,247.472977 
	C214.751328,246.491776 215.218323,244.045715 216.087509,243.350784 
	C218.348969,241.542679 227.256042,245.339478 228.365250,248.679596 
z"/>
<path fill="#52A7F6" opacity="1.000000" stroke="none" 
	d="
M296.773346,228.877274 
	C295.438629,229.269226 294.403839,229.958557 293.557251,229.775833 
	C292.118713,229.465393 290.798737,228.605621 289.428955,227.976715 
	C290.345367,226.656570 290.990753,224.902863 292.243073,224.120056 
	C294.026611,223.005157 296.216217,222.250565 298.307831,222.016541 
	C299.772705,221.852631 301.363647,222.815201 302.898254,223.274689 
	C302.061279,224.671539 301.412872,226.246506 300.320923,227.402557 
	C299.594208,228.171951 298.234375,228.343384 296.773346,228.877274 
z"/>
<path fill="#52A7F6" opacity="1.000000" stroke="none" 
	d="
M237.282455,255.828033 
	C235.584534,254.477539 233.894592,253.622009 232.733521,252.301453 
	C231.917786,251.373718 231.147522,249.451752 231.586395,248.631546 
	C232.068069,247.731293 234.389969,246.820267 235.159378,247.251923 
	C237.684875,248.668762 240.163345,250.437317 242.047226,252.603531 
	C242.847229,253.523453 242.126526,255.765900 242.096939,257.407288 
	C240.570084,256.979645 239.043228,256.551971 237.282455,255.828033 
z"/>
<path fill="#50A3F1" opacity="1.000000" stroke="none" 
	d="
M209.755798,241.869232 
	C208.579453,236.863266 210.754623,232.236969 214.753586,230.525391 
	C217.508728,229.346191 219.723602,230.872513 218.855255,233.242447 
	C217.619308,236.615646 214.976898,239.500961 212.737396,242.444092 
	C212.459381,242.809433 210.972336,242.254807 209.755798,241.869232 
z"/>
<path fill="#52A7F6" opacity="1.000000" stroke="none" 
	d="
M231.910339,259.951721 
	C233.415131,259.532104 234.575668,258.818970 235.603561,258.975677 
	C236.719589,259.145874 238.105957,259.905060 238.622421,260.828186 
	C238.976257,261.460602 238.300400,263.476898 237.643860,263.729858 
	C234.456818,264.957642 231.159348,266.013947 227.808426,266.614075 
	C227.044998,266.750824 225.456787,264.968872 225.123901,263.816956 
	C224.923691,263.124176 226.226151,261.587250 227.195267,261.068451 
	C228.454987,260.394104 230.054428,260.354279 231.910339,259.951721 
z"/>
<path fill="#52A7F6" opacity="1.000000" stroke="none" 
	d="
M173.966095,265.930664 
	C175.364059,262.018860 184.310623,259.168091 186.773926,261.623901 
	C187.492371,262.340179 187.673462,264.498505 187.125137,265.406769 
	C185.689972,267.783966 176.764023,268.227509 173.966095,265.930664 
z"/>
<path fill="#53A8F7" opacity="1.000000" stroke="none" 
	d="
M312.605286,219.572784 
	C311.464905,220.572617 310.680206,221.642593 309.664856,221.949448 
	C308.442078,222.318954 307.023376,222.040009 305.689484,222.041794 
	C305.735748,220.567261 305.268188,218.773926 305.941620,217.688507 
	C307.127838,215.776520 308.850220,214.084274 310.661865,212.715256 
	C311.760345,211.885117 313.448364,211.835175 314.871521,211.434723 
	C315.022308,213.030716 315.528046,214.702393 315.209045,216.198181 
	C314.963745,217.348495 313.680481,218.277481 312.605286,219.572784 
z"/>
<path fill="#53A8F8" opacity="1.000000" stroke="none" 
	d="
M269.479340,230.815643 
	C265.459229,234.704788 261.021606,232.901779 256.807129,232.257568 
	C256.366333,232.190170 255.614792,229.126556 256.201141,228.277206 
	C258.253387,225.304489 267.982208,227.027695 269.479340,230.815643 
z"/>
<path fill="#53A8F7" opacity="1.000000" stroke="none" 
	d="
M201.480316,260.048859 
	C202.897537,261.320770 203.886368,262.555542 204.875214,263.790283 
	C203.568619,264.531494 202.335358,265.650391 200.937531,265.921844 
	C199.033722,266.291626 196.902740,266.393127 195.060089,265.898438 
	C193.517517,265.484375 192.248917,264.049683 190.859009,263.066895 
	C192.281982,262.066254 193.581039,260.623230 195.160385,260.180786 
	C196.995987,259.666595 199.077286,260.029510 201.480316,260.048859 
z"/>
<path fill="#53A8F7" opacity="1.000000" stroke="none" 
	d="
M269.147949,148.130371 
	C273.893433,160.929367 268.786957,172.484482 257.046234,176.237122 
	C246.009064,179.764877 234.533798,173.234100 231.559433,161.732117 
	C229.127441,152.327499 234.208588,142.304398 243.360107,138.454025 
	C252.862091,134.456207 262.782623,138.067688 269.147949,148.130371 
M243.739853,169.046661 
	C252.410660,173.118851 260.852936,170.349258 264.148773,162.351242 
	C267.307098,154.686905 263.218079,146.142609 255.157211,143.562790 
	C249.022308,141.599335 242.157944,144.335495 238.866501,150.056290 
	C235.216751,156.399857 236.698135,162.936890 243.739853,169.046661 
z"/>
<path fill="#061F42" opacity="1.000000" stroke="none" 
	d="
M243.410751,168.851776 
	C236.698135,162.936890 235.216751,156.399857 238.866501,150.056290 
	C242.157944,144.335495 249.022308,141.599335 255.157211,143.562790 
	C263.218079,146.142609 267.307098,154.686905 264.148773,162.351242 
	C260.852936,170.349258 252.410660,173.118851 243.410751,168.851776 
z"/>
</svg>